<svg xmlns="http://www.w3.org/2000/svg" viewBox="0 0 900 850">
  <!-- Cross-Impact Analysis Matrix -->
  <!-- Shows how drivers/trends influence each other -->

  <defs>
    <style>
      .header { font-family: Arial, sans-serif; font-size: 24px; font-weight: bold; fill: #333; }
      .subtitle { font-family: Arial, sans-serif; font-size: 13px; fill: #666; }
      .cell-label { font-family: Arial, sans-serif; font-size: 11px; fill: #333; font-weight: bold; }
      .driver-label { font-family: Arial, sans-serif; font-size: 10px; fill: #333; }
      .impact-value { font-family: Arial, sans-serif; font-size: 11px; font-weight: bold; text-anchor: middle; }
      .axis-label { font-family: Arial, sans-serif; font-size: 12px; font-weight: bold; fill: #555; }
      .legend-text { font-family: Arial, sans-serif; font-size: 11px; fill: #333; }
    </style>
  </defs>

  <!-- Header -->
  <text x="450" y="30" text-anchor="middle" class="header">Cross-Impact Analysis Matrix</text>
  <text x="450" y="48" text-anchor="middle" class="subtitle">Example: How drivers influence each other (Gordon & Helmer, 1966)</text>

  <!-- Axis labels -->
  <text x="70" y="130" class="axis-label">← Impacts FROM (rows)</text>
  <text x="450" y="85" text-anchor="middle" class="axis-label">Impacts ON (columns) →</text>

  <!-- Driver labels (columns - top) -->
  <g id="column-labels">
    <text x="200" y="115" text-anchor="middle" class="driver-label">D1: AI</text>
    <text x="260" y="115" text-anchor="middle" class="driver-label">D2: Climate</text>
    <text x="320" y="115" text-anchor="middle" class="driver-label">D3: Demo</text>
    <text x="380" y="115" text-anchor="middle" class="driver-label">D4: Energy</text>
    <text x="440" y="115" text-anchor="middle" class="driver-label">D5: Trade</text>
    <text x="500" y="115" text-anchor="middle" class="driver-label">D6: Tech</text>
    <text x="560" y="115" text-anchor="middle" class="driver-label">D7: Urban</text>
    <text x="620" y="115" text-anchor="middle" class="driver-label">D8: Health</text>
  </g>

  <!-- Driver labels (rows - left) -->
  <g id="row-labels">
    <text x="165" y="150" text-anchor="end" class="driver-label">D1: AI Adoption</text>
    <text x="165" y="190" text-anchor="end" class="driver-label">D2: Climate Action</text>
    <text x="165" y="230" text-anchor="end" class="driver-label">D3: Demographics</text>
    <text x="165" y="270" text-anchor="end" class="driver-label">D4: Energy Transition</text>
    <text x="165" y="310" text-anchor="end" class="driver-label">D5: Trade Shifts</text>
    <text x="165" y="350" text-anchor="end" class="driver-label">D6: Tech Innovation</text>
    <text x="165" y="390" text-anchor="end" class="driver-label">D7: Urbanization</text>
    <text x="165" y="430" text-anchor="end" class="driver-label">D8: Health Systems</text>
  </g>

  <!-- Matrix grid -->
  <g id="matrix">
    <!-- D1 row -->
    <rect x="175" y="130" width="55" height="35" fill="#333" stroke="#666" stroke-width="1"/>
    <rect x="235" y="130" width="55" height="35" fill="#E74C3C" stroke="#666" stroke-width="1"/>
    <rect x="295" y="130" width="55" height="35" fill="#F39C12" stroke="#666" stroke-width="1"/>
    <rect x="355" y="130" width="55" height="35" fill="#3498DB" stroke="#666" stroke-width="1"/>
    <rect x="415" y="130" width="55" height="35" fill="#F39C12" stroke="#666" stroke-width="1"/>
    <rect x="475" y="130" width="55" height="35" fill="#E74C3C" stroke="#666" stroke-width="1"/>
    <rect x="535" y="130" width="55" height="35" fill="#95A5A6" stroke="#666" stroke-width="1"/>
    <rect x="595" y="130" width="55" height="35" fill="#3498DB" stroke="#666" stroke-width="1"/>

    <!-- D2 row -->
    <rect x="175" y="170" width="55" height="35" fill="#3498DB" stroke="#666" stroke-width="1"/>
    <rect x="235" y="170" width="55" height="35" fill="#333" stroke="#666" stroke-width="1"/>
    <rect x="295" y="170" width="55" height="35" fill="#95A5A6" stroke="#666" stroke-width="1"/>
    <rect x="355" y="170" width="55" height="35" fill="#E74C3C" stroke="#666" stroke-width="1"/>
    <rect x="415" y="170" width="55" height="35" fill="#F39C12" stroke="#666" stroke-width="1"/>
    <rect x="475" y="170" width="55" height="35" fill="#95A5A6" stroke="#666" stroke-width="1"/>
    <rect x="535" y="170" width="55" height="35" fill="#3498DB" stroke="#666" stroke-width="1"/>
    <rect x="595" y="170" width="55" height="35" fill="#F39C12" stroke="#666" stroke-width="1"/>

    <!-- D3 row -->
    <rect x="175" y="210" width="55" height="35" fill="#95A5A6" stroke="#666" stroke-width="1"/>
    <rect x="235" y="210" width="55" height="35" fill="#95A5A6" stroke="#666" stroke-width="1"/>
    <rect x="295" y="210" width="55" height="35" fill="#333" stroke="#666" stroke-width="1"/>
    <rect x="355" y="210" width="55" height="35" fill="#95A5A6" stroke="#666" stroke-width="1"/>
    <rect x="415" y="210" width="55" height="35" fill="#3498DB" stroke="#666" stroke-width="1"/>
    <rect x="475" y="210" width="55" height="35" fill="#95A5A6" stroke="#666" stroke-width="1"/>
    <rect x="535" y="210" width="55" height="35" fill="#F39C12" stroke="#666" stroke-width="1"/>
    <rect x="595" y="210" width="55" height="35" fill="#E74C3C" stroke="#666" stroke-width="1"/>

    <!-- D4 row -->
    <rect x="175" y="250" width="55" height="35" fill="#F39C12" stroke="#666" stroke-width="1"/>
    <rect x="235" y="250" width="55" height="35" fill="#E74C3C" stroke="#666" stroke-width="1"/>
    <rect x="295" y="250" width="55" height="35" fill="#95A5A6" stroke="#666" stroke-width="1"/>
    <rect x="355" y="250" width="55" height="35" fill="#333" stroke="#666" stroke-width="1"/>
    <rect x="415" y="250" width="55" height="35" fill="#E74C3C" stroke="#666" stroke-width="1"/>
    <rect x="475" y="250" width="55" height="35" fill="#3498DB" stroke="#666" stroke-width="1"/>
    <rect x="535" y="250" width="55" height="35" fill="#95A5A6" stroke="#666" stroke-width="1"/>
    <rect x="595" y="250" width="55" height="35" fill="#F39C12" stroke="#666" stroke-width="1"/>

    <!-- D5 row -->
    <rect x="175" y="290" width="55" height="35" fill="#95A5A6" stroke="#666" stroke-width="1"/>
    <rect x="235" y="290" width="55" height="35" fill="#3498DB" stroke="#666" stroke-width="1"/>
    <rect x="295" y="290" width="55" height="35" fill="#3498DB" stroke="#666" stroke-width="1"/>
    <rect x="355" y="290" width="55" height="35" fill="#F39C12" stroke="#666" stroke-width="1"/>
    <rect x="415" y="290" width="55" height="35" fill="#333" stroke="#666" stroke-width="1"/>
    <rect x="475" y="290" width="55" height="35" fill="#95A5A6" stroke="#666" stroke-width="1"/>
    <rect x="535" y="290" width="55" height="35" fill="#3498DB" stroke="#666" stroke-width="1"/>
    <rect x="595" y="290" width="55" height="35" fill="#95A5A6" stroke="#666" stroke-width="1"/>

    <!-- D6 row -->
    <rect x="175" y="330" width="55" height="35" fill="#E74C3C" stroke="#666" stroke-width="1"/>
    <rect x="235" y="330" width="55" height="35" fill="#95A5A6" stroke="#666" stroke-width="1"/>
    <rect x="295" y="330" width="55" height="35" fill="#95A5A6" stroke="#666" stroke-width="1"/>
    <rect x="355" y="330" width="55" height="35" fill="#F39C12" stroke="#666" stroke-width="1"/>
    <rect x="415" y="330" width="55" height="35" fill="#95A5A6" stroke="#666" stroke-width="1"/>
    <rect x="475" y="330" width="55" height="35" fill="#333" stroke="#666" stroke-width="1"/>
    <rect x="535" y="330" width="55" height="35" fill="#3498DB" stroke="#666" stroke-width="1"/>
    <rect x="595" y="330" width="55" height="35" fill="#F39C12" stroke="#666" stroke-width="1"/>

    <!-- D7 row -->
    <rect x="175" y="370" width="55" height="35" fill="#3498DB" stroke="#666" stroke-width="1"/>
    <rect x="235" y="370" width="55" height="35" fill="#F39C12" stroke="#666" stroke-width="1"/>
    <rect x="295" y="370" width="55" height="35" fill="#3498DB" stroke="#666" stroke-width="1"/>
    <rect x="355" y="370" width="55" height="35" fill="#95A5A6" stroke="#666" stroke-width="1"/>
    <rect x="415" y="370" width="55" height="35" fill="#95A5A6" stroke="#666" stroke-width="1"/>
    <rect x="475" y="370" width="55" height="35" fill="#3498DB" stroke="#666" stroke-width="1"/>
    <rect x="535" y="370" width="55" height="35" fill="#333" stroke="#666" stroke-width="1"/>
    <rect x="595" y="370" width="55" height="35" fill="#3498DB" stroke="#666" stroke-width="1"/>

    <!-- D8 row -->
    <rect x="175" y="410" width="55" height="35" fill="#F39C12" stroke="#666" stroke-width="1"/>
    <rect x="235" y="410" width="55" height="35" fill="#3498DB" stroke="#666" stroke-width="1"/>
    <rect x="295" y="410" width="55" height="35" fill="#E74C3C" stroke="#666" stroke-width="1"/>
    <rect x="355" y="410" width="55" height="35" fill="#95A5A6" stroke="#666" stroke-width="1"/>
    <rect x="415" y="410" width="55" height="35" fill="#95A5A6" stroke="#666" stroke-width="1"/>
    <rect x="475" y="410" width="55" height="35" fill="#95A5A6" stroke="#666" stroke-width="1"/>
    <rect x="535" y="410" width="55" height="35" fill="#3498DB" stroke="#666" stroke-width="1"/>
    <rect x="595" y="410" width="55" height="35" fill="#333" stroke="#666" stroke-width="1"/>

    <!-- Diagonal self-impact cells (dark) have text -->
    <text x="202.5" y="152" class="impact-value" fill="white">—</text>
    <text x="262.5" y="192" class="impact-value" fill="white">—</text>
    <text x="322.5" y="232" class="impact-value" fill="white">—</text>
    <text x="382.5" y="272" class="impact-value" fill="white">—</text>
    <text x="442.5" y="312" class="impact-value" fill="white">—</text>
    <text x="502.5" y="352" class="impact-value" fill="white">—</text>
    <text x="562.5" y="392" class="impact-value" fill="white">—</text>
    <text x="622.5" y="432" class="impact-value" fill="white">—</text>
  </g>

  <!-- Legend -->
  <g id="legend">
    <text x="70" y="480" class="axis-label">Impact Strength:</text>

    <rect x="70" y="490" width="50" height="25" fill="#E74C3C" stroke="#666" stroke-width="1"/>
    <text x="125" y="507" class="legend-text">High (+3)</text>

    <rect x="190" y="490" width="50" height="25" fill="#F39C12" stroke="#666" stroke-width="1"/>
    <text x="245" y="507" class="legend-text">Medium (+2)</text>

    <rect x="330" y="490" width="50" height="25" fill="#3498DB" stroke="#666" stroke-width="1"/>
    <text x="385" y="507" class="legend-text">Low (+1)</text>

    <rect x="460" y="490" width="50" height="25" fill="#95A5A6" stroke="#666" stroke-width="1"/>
    <text x="515" y="507" class="legend-text">Minimal (0)</text>

    <rect x="590" y="490" width="50" height="25" fill="#333" stroke="#666" stroke-width="1"/>
    <text x="645" y="507" class="legend-text">Self (—)</text>
  </g>

  <!-- Key insights box -->
  <rect x="70" y="540" width="760" height="260" fill="rgba(255,248,220,0.8)" stroke="#999" stroke-width="2" rx="8"/>

  <text x="450" y="565" text-anchor="middle" class="axis-label">How to Read the Matrix:</text>

  <text x="85" y="590" class="legend-text">• <tspan font-weight="bold">Rows</tspan> show how each driver impacts others</text>
  <text x="85" y="610" class="legend-text">• <tspan font-weight="bold">Columns</tspan> show how each driver is impacted by others</text>
  <text x="85" y="630" class="legend-text">• Diagonal cells (—) represent self-impact (not analyzed)</text>

  <text x="85" y="660" class="legend-text" font-weight="bold">Example Insights from this Matrix:</text>

  <text x="85" y="685" class="legend-text">1. <tspan font-weight="bold">AI Adoption (D1)</tspan> has HIGH impact on Climate Action (red) and Tech Innovation (red)</text>
  <text x="100" y="702" class="legend-text" font-style="italic">→ AI could accelerate both climate solutions and broader innovation</text>

  <text x="85" y="725" class="legend-text">2. <tspan font-weight="bold">Energy Transition (D4)</tspan> has HIGH impact on Climate (red) and Trade (red)</text>
  <text x="100" y="742" class="legend-text" font-style="italic">→ Renewable energy reshapes climate outcomes and global trade patterns</text>

  <text x="85" y="765" class="legend-text">3. <tspan font-weight="bold">Demographics (D3)</tspan> has HIGH impact on Health Systems (red)</text>
  <text x="100" y="782" class="legend-text" font-style="italic">→ Aging populations stress healthcare infrastructure</text>

  <!-- Footer -->
  <text x="450" y="835" text-anchor="middle" style="font-family: Arial; font-size: 10px; fill: #999;">
    Strategic Foresight Mind Map • CC BY-SA 4.0 • Alexander Kline Consulting
  </text>
</svg>
